<svg class="svg-standalone-icon" width="100%" viewBox="221.33417539270366 115.00000000000001 107.33164921459272 107.33164921459273">
<path fill="#fff" d="M319.21486,156.73486c-1.039,-3.86199 -2.55399,-7.51798 -4.50599,-10.90096c2.90799,-4.73898 2.33999,-11.01096 -1.76199,-15.11695c-4.10099,-4.10099 -10.37597,-4.66698 -15.11495,-1.75599c-3.38499,-1.95199 -7.04098,-3.46699 -10.89696,-4.50599c-1.292,-5.41498 -6.13098,-9.45497 -11.93496,-9.45497c-5.80798,0 -10.64897,4.03999 -11.93296,9.45097c-3.85999,1.038 -7.51998,2.55399 -10.90396,4.50599c-4.73898,-2.90899 -11.00996,-2.34099 -15.11095,1.75999c-4.10699,4.10599 -4.66898,10.37297 -1.76199,15.11095c-1.95199,3.38899 -3.46699,7.04398 -4.50699,10.90496c-5.41298,1.29 -9.44897,6.13298 -9.44897,11.93296c0,5.80898 4.03599,10.64397 9.45097,11.93096c1.04,3.86699 2.54999,7.52098 4.50599,10.90996c-2.90799,4.73498 -2.33999,11.00596 1.76199,15.10695c4.10499,4.10699 10.37097,4.66898 15.10695,1.76499c3.38699,1.94799 7.04898,3.46199 10.90896,4.50199c1.282,5.41498 6.12298,9.45097 11.93096,9.45097c5.80398,0 10.64297,-4.03599 11.93496,-9.45097c3.85599,-1.04 7.51198,-2.55399 10.89696,-4.50599c4.73698,2.91199 11.00996,2.34499 15.11495,-1.76199c4.10199,-4.10099 4.66898,-10.37097 1.76199,-15.11095c1.95199,-3.38399 3.46699,-7.04498 4.50599,-10.90096c5.41498,-1.288 9.45097,-6.12598 9.45097,-11.93496c0,-5.80398 -4.03599,-10.64297 -9.45097,-11.93096zM275,131.76895c-2.47299,0 -4.47199,-1.99999 -4.47199,-4.47099c0,-2.46599 1.99899,-4.47199 4.47199,-4.47199c2.47299,0 4.47199,2.00399 4.47199,4.47199c0,2.47199 -1.99899,4.47099 -4.47199,4.47099zM310.31888,179.31279c-0.717,2.37599 -1.65599,4.65298 -2.81399,6.80098c-4.12199,-1.132 -8.71197,-0.132 -11.94796,3.10899c-3.23999,3.23999 -4.24499,7.82497 -3.10899,11.94796c-2.14899,1.157 -4.42499,2.09699 -6.79898,2.81399c-2.11899,-3.71799 -6.07098,-6.24998 -10.64897,-6.24998c-4.58599,0 -8.53297,2.53299 -10.64897,6.24998c-2.37599,-0.713 -4.65498,-1.65099 -6.79898,-2.80999c1.136,-4.12099 0.137,-8.70697 -3.10499,-11.95196c-3.23999,-3.24099 -7.82997,-4.24099 -11.95596,-3.10499c-1.153,-2.14899 -2.09699,-4.42499 -2.81399,-6.80498c3.72099,-2.11199 6.25398,-6.06098 6.25398,-10.64697c0,-4.57799 -2.53299,-8.52897 -6.25398,-10.64697c0.717,-2.37699 1.65999,-4.65198 2.81399,-6.79998c4.12099,1.135 8.71197,0.136 11.95596,-3.10399c3.24199,-3.24199 4.23699,-7.83197 3.10499,-11.95896c2.14499,-1.152 4.42499,-2.09099 6.79898,-2.80799c2.11499,3.71699 6.06298,6.24998 10.64897,6.24998c4.57599,0 8.52897,-2.53299 10.64897,-6.24998c2.37599,0.717 4.65098,1.65499 6.79898,2.81199c-1.132,4.12699 -0.131,8.71297 3.10899,11.95496c3.23999,3.23999 7.82597,4.23999 11.94796,3.10799c1.157,2.14499 2.09699,4.41899 2.81399,6.79598c-3.71799,2.11799 -6.24998,6.06898 -6.24998,10.64697c0,4.57999 2.53299,8.53397 6.24998,10.64697zM301.08991,136.25193c1.74799,-1.74699 4.57699,-1.74299 6.32398,0c1.74699,1.74599 1.74699,4.57699 0,6.32798c-1.74699,1.74699 -4.57599,1.74299 -6.32398,0c-1.74599,-1.74799 -1.74999,-4.57699 0,-6.32798zM242.58611,142.57991c-1.74699,-1.74799 -1.74699,-4.58199 0,-6.32798c1.74699,-1.74299 4.57599,-1.74299 6.32398,0c1.74699,1.74599 1.74699,4.58099 0,6.32798c-1.74799,1.74299 -4.57699,1.74299 -6.32398,0zM233.63314,173.13881c-2.47299,0 -4.47299,-2.00199 -4.47299,-4.47299c0,-2.46699 1.99999,-4.47199 4.47299,-4.47199c2.47099,0 4.47199,2.00499 4.47199,4.47199c0,2.47099 -2.00099,4.47299 -4.47199,4.47299zM316.36686,173.13881c-2.47099,0 -4.47199,-2.00199 -4.47199,-4.47299c0,-2.46699 2.00099,-4.47199 4.47199,-4.47199c2.47299,0 4.47299,2.00499 4.47299,4.47199c0,2.47099 -1.99999,4.47299 -4.47299,4.47299zM307.41389,201.07972c-1.74699,1.74699 -4.57599,1.74699 -6.32398,0c-1.75099,-1.74699 -1.74699,-4.57599 0,-6.32498c1.74199,-1.74599 4.57699,-1.74999 6.32398,0c1.74699,1.74899 1.74299,4.57799 0,6.32498zM248.91009,201.07972c-1.74799,1.74699 -4.57699,1.74699 -6.32398,0c-1.74699,-1.74699 -1.74699,-4.57599 0,-6.32498c1.74699,-1.74599 4.57599,-1.74599 6.32398,0c1.74599,1.74899 1.74599,4.57799 0,6.32498zM275,214.50567c-2.47299,0 -4.47199,-2.00099 -4.47199,-4.47299c0,-2.47199 1.99899,-4.47199 4.47199,-4.47199c2.46699,0 4.47199,1.99999 4.47199,4.47199c0,2.47199 -2.00499,4.47299 -4.47199,4.47299z"/>
</svg>
